# xmcd CD database file
#
# Track frame offsets:
#	150
#	21532
#	44307
#	63906
#	83505
#	100123
#	121561
#	139906
#
# Disc length: 2134 seconds
#
# Revision: 0
# Processed by: cddbd v1.5.1PL2 Copyright (c) Steve Scherf et al.
# Submitted via: CDex 1.51
#
DISCID=5e085408
DTITLE=Gigi - Diamond Girl
DYEAR=1997
DGENRE=Salsa
TTITLE0=Tonto
TTITLE1=No Renunciaré
TTITLE2=Lo Voy A Dividir
TTITLE3=La Soledad
TTITLE4=Unbreak My Heart
TTITLE5=Que De Mi
TTITLE6=Se Que Mientes
TTITLE7=Amame Una Vez Más
EXTD=YEAR: 1997
EXTT0=
EXTT1=
EXTT2=
EXTT3=
EXTT4=
EXTT5=
EXTT6=
EXTT7=
PLAYORDER=
